<svg xmlns="http://www.w3.org/2000/svg" xmlns:xlink="http://www.w3.org/1999/xlink" width="497.819" height="286.872" viewBox="0 0 497.819 286.872"><defs><linearGradient id="a" x1="0.5" y1="1" x2="0.5" gradientUnits="objectBoundingBox"><stop offset="0" stop-color="gray" stop-opacity="0.251"/><stop offset="0.54" stop-color="gray" stop-opacity="0.122"/><stop offset="1" stop-color="gray" stop-opacity="0.102"/></linearGradient><linearGradient id="b" y1="1" y2="0" xlink:href="#a"/></defs><path d="M249.64,523.979c-30.1-10.4-64.512-19.2-92.633-4.258-3.564,1.894-7.076,4.279-9,7.827-5.072,9.335,2.99,21.441-.939,31.309s-18.717,14.835-17.507,25.376a14.711,14.711,0,0,0,3.569,7.4c11.016,13.458,31.21,14.82,48.278,11.48s33.761-10.264,51.138-9.393c16.7.861,32.06,8.871,47.36,15.613,25.793,11.4,55.918,19.573,81.69,8.12,11.809-5.25,21.572-14.188,32.874-20.429a80.913,80.913,0,0,1,49.938-9.163c11.48,1.618,22.438,5.688,33.673,8.5,25.517,6.371,52.15,6.163,78.444,5.912,4.895-.047,9.868-.1,14.559-1.5,6.945-2.087,12.675-6.893,18.19-11.595,7.248-6.173,14.882-12.957,17.22-22.187,2.76-10.958-2.953-22.605-11.428-30.052s-19.307-11.516-29.879-15.44c-2.609-.96-5.4-1.936-8.067-1.211a11,11,0,0,0-4.54,2.906c-7.5,7.222-13.844,19.438-24.077,17.476-3.653-.7-6.643-3.24-9.534-5.589-15.435-12.524-36.2-22.193-54.827-15.274-13.625,5.062-23.242,18.06-37.049,22.647-9.821,3.266-20.492,1.852-30.824,2.489-15.028.918-29.655,6.23-44.7,5.907-38.374-.824-70.346-37.518-108.564-34.022-3,.271-6.262.96-8.1,3.329" transform="translate(-126.108 -336.099)" fill="#0cc" opacity="0.5"/><path d="M259.09,465.794S227.2,485.044,286,514.693c0,0,12.957-24.056-1.367-43.671a19.307,19.307,0,0,0-25.047-5.49Z" transform="translate(-183.95 -312.819)" fill="#0cc"/><path d="M267.73,467.52s27.3,20.873,26.54,49.285" transform="translate(-192.209 -314.946)" fill="none" stroke="#535461" stroke-miterlimit="10" stroke-width="1"/><path d="M960.056,406.725c6.46,23.623-21.1,90.921-21.1,90.921s-57.984-43.9-64.449-67.523a44.354,44.354,0,1,1,85.541-23.4Z" transform="translate(-481.475 -269.786)" fill="#6c63ff"/><path d="M960.056,406.725c6.46,23.623-21.1,90.921-21.1,90.921s-57.984-43.9-64.449-67.523a44.354,44.354,0,1,1,85.541-23.4Z" transform="translate(-481.475 -269.786)" fill="#0cc" opacity="0.8"/><path d="M936.21,378.27s36.094,54.488,33.4,121.99" transform="translate(-511.867 -272.269)" fill="none" stroke="#535461" stroke-miterlimit="10" stroke-width="1"/><path d="M1031.272,518.285s-32.728-17.8-28.585,47.918c0,0,27.3-.976,36.992-23.247a19.307,19.307,0,0,0-7.927-24.395Z" transform="translate(-543.482 -338.17)" fill="#0cc"/><path d="M1032.142,520.52s-4.227,34.116-29.123,47.8" transform="translate(-543.814 -340.29)" fill="none" stroke="#535461" stroke-miterlimit="10" stroke-width="1"/><path d="M131.643,503.745s-31.9,19.245,26.9,48.878c0,0,12.957-24.056-1.367-43.671a19.307,19.307,0,0,0-25.047-5.489Z" transform="translate(-123.003 -330.956)" fill="#0cc"/><path d="M140.26,505.49s27.3,20.873,26.539,49.285" transform="translate(-131.255 -333.103)" fill="none" stroke="#535461" stroke-miterlimit="10" stroke-width="1"/><path d="M580.932,399.51H547.405a11.175,11.175,0,0,0,1.169-4.994V241.854A11.224,11.224,0,0,0,537.35,230.63H277.836a11.224,11.224,0,0,0-11.224,11.224V394.522a11.177,11.177,0,0,0,1.169,4.994H233.069A2.969,2.969,0,0,0,230.1,402.5v2.4a16.6,16.6,0,0,0,16.6,16.6H567.3a16.6,16.6,0,0,0,16.6-16.6v-2.4a2.969,2.969,0,0,0-2.969-2.99Zm-206.581,9.5-2.891-3.261h71.374l-3.183,3.267Z" transform="translate(-174.215 -201.669)" fill="url(#a)"/><rect width="275.581" height="171.15" rx="23.26" transform="translate(95.574 31.121)" fill="#535461"/><rect width="263.397" height="139.82" transform="translate(101.377 56.069)" fill="#fff"/><ellipse cx="2.322" cy="2.322" rx="2.322" ry="2.322" transform="translate(230.755 41.563)" fill="#fff"/><path d="M451.63,551.08l-9.048,9.283h-63.8l-8.177-9.283H240.681a2.9,2.9,0,0,0-2.9,2.9v2.338a16.228,16.228,0,0,0,16.228,16.228H567.337a16.229,16.229,0,0,0,16.229-16.229v-2.338a2.9,2.9,0,0,0-2.9-2.9Z" transform="translate(-177.888 -354.904)" fill="#535461"/><path d="M258.77,124.19V243.122H455.442" transform="translate(-123.742 -59.417)" fill="none" stroke="#535461" stroke-miterlimit="10" stroke-width="2"/><rect width="20.304" height="31.33" transform="translate(152.431 147.736)" fill="rgba(0,204,204,0.8)" opacity="0.5"/><rect width="20.304" height="59.179" transform="translate(187.241 119.887)" fill="rgba(0,204,204,0.9)" opacity="0.7"/><rect width="20.304" height="42.351" transform="translate(222.051 136.71)" fill="rgba(0,204,204,0.6)" opacity="0.5"/><rect width="20.304" height="68.462" transform="translate(256.862 110.604)" fill="rgba(0,204,204,0.7)" opacity="0.8"/><rect width="20.304" height="92.826" transform="translate(291.672 86.235)" fill="#0cc"/><path d="M311.02,198.107,346.409,166.2l34.81,30.166,34.231-36.548,34.81-14.506" transform="translate(-148.727 -69.516)" fill="none" stroke="#535461" stroke-miterlimit="10" stroke-width="2"/><circle cx="4.06" cy="4.06" r="4.06" transform="translate(158.233 124.531)" fill="#0cc"/><circle cx="4.06" cy="4.06" r="4.06" transform="translate(227.854 122.209)" fill="#0cc"/><circle cx="4.06" cy="4.06" r="4.06" transform="translate(263.243 86.24)" fill="#0cc"/><circle cx="4.06" cy="4.06" r="4.06" transform="translate(193.623 92.038)" fill="#0cc"/><circle cx="4.06" cy="4.06" r="4.06" transform="translate(297.475 71.734)" fill="#0cc"/><path d="M881.388,376.389a20.353,20.353,0,0,0-7.827-1.231c-2.4-.871-8.026-3.131-11.871-6.533a85.588,85.588,0,0,0-.255-10.029c-1.967-22.37,2.458-37.117,2.458-37.117s3.475-11.25,3.094-20.586c.224.423.35.673.35.673.3-8.052,3.047-16.385,5.1-21.577a1.742,1.742,0,0,0,.229-.084l2.3-5.448a4.727,4.727,0,0,0,.433-1.007l.37-.861-.109-.047c.036-.141.073-.292.109-.444h0c1.466-6.2,2.609-20.92,2.609-20.92,3.935-15.487-5.406-25.047-5.406-25.047l-15.853-13.64a2.011,2.011,0,0,1,.156.558l-.13-.115c-.224-.642-.47-1.409-.709-2.286a13.4,13.4,0,0,0,5.119-7.681,24.04,24.04,0,0,0,.235-5.74l-.261-6.58a20.879,20.879,0,0,0-.392-3.835c-1.195-5.218-6.543-8.871-11.913-9.111a43.55,43.55,0,0,0-5.114.271,34.4,34.4,0,0,1-4.175.089.752.752,0,0,1-.449-.12.658.658,0,0,1-.193-.454,2.265,2.265,0,0,1,.553-1.7,2.088,2.088,0,0,1,.72-.412l-.381.089a2.086,2.086,0,0,1,.626-.339,12.157,12.157,0,0,0-3.955,1.435,5.11,5.11,0,0,0-.924.778,4.033,4.033,0,0,0-1.336,2.484,4.622,4.622,0,0,1-1.409-2.087,2.086,2.086,0,0,1,0-1.012q-.141.172-.271.355v-.11a10.55,10.55,0,0,0-2.087,4.248,1.653,1.653,0,0,1-.376-1.221q-.118.368-.219.736a1.681,1.681,0,0,1,0-.491,16.806,16.806,0,0,0-.819,5.834c0,1.972.877,5.046,2.99,5.74.11.037.219.063.334.089a13.27,13.27,0,0,0,8.949,20.267q.052.36.1.757h.083c.057.522.1,1.1.136,1.68a11.3,11.3,0,0,1-1.743,1.4,14.37,14.37,0,0,1-5.8,1.92,17.272,17.272,0,0,0-6.977,2.087c-2.531,1.414-5.323,3.475-6.2,5.98-1.461,4.174-9.508,10.671-14.9,11.48l-1.92-.11-.141-.042v.037l-.47-.026H803.7v.026l-.485-.026s-.047.224-.115.621c-2.714-.934-8.479-3.522-15.983-10.332-8.349-7.582-19.646-6.09-24-5.135a.746.746,0,0,0-.2,1.383c1.759.965,4.483,2.369,5.74,2.526,0,0-2.609,2.729.167,4.175a2.015,2.015,0,0,0,2.087-.2c1.346-.986,5.088,1.247,10.509,2.411,0,0,15.3,15.832,22.9,18.264a10.94,10.94,0,0,0,.579,1.007l.47-.036v.037h.2l.057.522s11.814-.621,15.655-4.91a6.172,6.172,0,0,0,.746-.8l-4.107,51.66h.036l-.036.491h3.021a113.9,113.9,0,0,1-.819,19.025v33.678s-.157,2.964,6,7.305a230.135,230.135,0,0,1,18.639,14.449l.746.647c-1.132,10.306-3.5,29.514-5.479,30.229l1.221.214c-2.087,2.646-8.015,9.914-9.821,10.108-2.212.245-3.689,3.689,0,4.425a41.333,41.333,0,0,0,21.916-2.16,3.345,3.345,0,0,0,2.087-3.559l-.715-5.427a.762.762,0,0,1,.313.329c.49,1.477,0-1.967,0-1.967a153.837,153.837,0,0,0,4.754-19.829l7.305,6.314s.146-.183.4-.522c1.79,4.06,4.983,12.367,4.268,18.451-.981,8.349,8.349.981,7.373-3.935-.793-3.976,2.755-20.831,4.138-27.134A2.8,2.8,0,0,0,881.388,376.389Z" transform="translate(-428.814 -175.13)" fill="url(#b)"/><path d="M806.168,284.5s-6.961-1.2-17.282-10.562c-8.167-7.4-19.182-5.949-23.429-5.015a.725.725,0,0,0-.193,1.346c1.717.939,4.378,2.312,5.625,2.468,0,0-2.573,2.661.162,4.086a1.967,1.967,0,0,0,2.056-.2c1.315-.96,4.968,1.221,10.264,2.353,0,0,20.643,21.363,25.444,17.742Z" transform="translate(-429.941 -219.612)" fill="#fec3be"/><path d="M912.11,234.371s1.92,8.161,0,13.922l8.641,1.2,7.681-3.841v-5.041a34.614,34.614,0,0,1-2.64-16.562Z" transform="translate(-500.342 -198.523)" fill="#fec3be"/><path d="M959,569.667s6.262,12.242,5.281,20.4,8.161.96,7.2-3.841c-.777-3.882,2.688-20.351,4.039-26.477a2.734,2.734,0,0,0-1.816-3.188c-2.886-.95-7.718-2.113-10.144-.334C959.976,558.866,959,569.667,959,569.667Z" transform="translate(-522.764 -356.923)" fill="#1e1e1e"/><path d="M902.022,607.93s-8.161,10.562-10.322,10.8-3.6,3.6,0,4.321a40.359,40.359,0,0,0,21.395-2.088,3.267,3.267,0,0,0,2.051-3.475l-1.378-10.28Z" transform="translate(-489.534 -381.744)" fill="#1e1e1e"/><path d="M880.471,393.78l-7.827,1.044a114.559,114.559,0,0,1-.094,27.515v32.874s-.151,2.9,5.86,7.107a224.781,224.781,0,0,1,18.2,14.089l21.781,18.869s8.641-10.562,7.441-16.8c0,0-14.4-4.561-16.323-12-1.1-4.258-6.684-7.827-11.256-10.071a14,14,0,0,1-7.488-15.884,12.247,12.247,0,0,1,1.226-3.084c3.841-6.721,9.361-21.843,9.361-21.843L890.792,395.46Z" transform="translate(-481.425 -279.685)" fill="#4d4981"/><path d="M880.471,393.78l-7.827,1.044a114.559,114.559,0,0,1-.094,27.515v32.874s-.151,2.9,5.86,7.107a224.781,224.781,0,0,1,18.2,14.089l21.781,18.869s8.641-10.562,7.441-16.8c0,0-14.4-4.561-16.323-12-1.1-4.258-6.684-7.827-11.256-10.071a14,14,0,0,1-7.488-15.884,12.247,12.247,0,0,1,1.226-3.084c3.841-6.721,9.361-21.843,9.361-21.843L890.792,395.46Z" transform="translate(-481.425 -279.685)" opacity="0.39"/><path d="M902.79,506.69s14.162,2.4,14.642,3.841,0-1.92,0-1.92,8.161-24.724,6.262-46.562,2.4-36.245,2.4-36.245,5.041-16.322,2.16-25.684-33.125-5.281-33.125-5.281,10.562,24.724,10.322,36.485c0,0,1.2,35.525,3.361,39.606C908.791,470.909,905.43,505.714,902.79,506.69Z" transform="translate(-492.223 -279.768)" fill="#2f2d4f"/><path d="M893.441,255.79s1.44,8.871,15.842,5.041L899.7,333.8s-27.844.96-27.6-2.4l5.74-44.161Z" transform="translate(-481.209 -213.7)" fill="#fff"/><path d="M879.955,254.87a11.7,11.7,0,0,1-6.935,3.293,16.871,16.871,0,0,0-6.815,2.025c-2.468,1.383-5.218,3.392-6.053,5.839-1.68,4.8-12.242,12.722-17.042,11.042l1.68,14.4s13.682-.72,16.083-6L856.8,336.863h3.6s1.92-13.922,3.36-16.8,4.321-18.723,4.561-22.563,3.841-25.924,6.961-29.743l4.7-11.4Z" transform="translate(-467.348 -213.26)" opacity="0.1"/><path d="M879.52,256.25a14.858,14.858,0,0,1-7.415,3.053,16.869,16.869,0,0,0-6.81,2.035c-2.468,1.383-5.218,3.392-6.053,5.839-1.68,4.8-12.242,12.722-17.043,11.042l1.68,14.4s13.682-.72,16.082-6l-4.081,51.362h3.6s1.921-13.922,3.361-16.8,4.321-18.723,4.56-22.563,3.841-25.924,6.961-29.744l5.156-11.188Z" transform="translate(-466.913 -213.92)" opacity="0.1"/><path d="M879.515,255.33a14.855,14.855,0,0,1-7.415,3.053,16.869,16.869,0,0,0-6.815,2.025c-2.468,1.383-5.218,3.392-6.053,5.839-1.68,4.8-12.242,12.722-17.042,11.042l1.68,14.4s13.682-.72,16.082-6l-4.075,51.394h3.6s1.92-13.922,3.361-16.8,4.321-18.723,4.561-22.563,3.841-25.924,6.961-29.744l5.161-11.162Z" transform="translate(-466.908 -213.48)" fill="#747474"/><path d="M925.192,231.791c-.313-2.275.313-3.694.6-6.361L912.11,235.751s.329,1.393.579,3.434a13.041,13.041,0,0,0,2.087.167C919.525,239.352,922.943,235.642,925.192,231.791Z" transform="translate(-500.342 -199.183)" opacity="0.1"/><circle cx="12.962" cy="12.962" r="12.962" transform="translate(401.446 13.531)" fill="#fec3be"/><path d="M890.049,191.977a16.4,16.4,0,0,1,1.044-6.413,1.6,1.6,0,0,0,.271,2.087,10.27,10.27,0,0,1,3.256-5.771,1.764,1.764,0,0,0-1.169,2.2,5.009,5.009,0,0,0,1.6,2.254,4.027,4.027,0,0,1,1.978-3.407,11.869,11.869,0,0,1,3.862-1.4,2.239,2.239,0,0,0-1.482,2.3.642.642,0,0,0,.193.444.735.735,0,0,0,.438.115,33.575,33.575,0,0,0,4.054-.089,42.525,42.525,0,0,1,4.994-.266c5.218.219,10.462,3.783,11.631,8.871a20.364,20.364,0,0,1,.381,3.747l.256,6.424a23.483,23.483,0,0,1-.229,5.615,11.9,11.9,0,0,1-6.111,8.078c-1.884-2.729-2.051-6.236-2.7-9.487a4.8,4.8,0,0,0-.814-2.087,1.831,1.831,0,0,0-2.009-.678,1.154,1.154,0,0,0-.423,1.837c-.522.616-1.5.157-2.087-.391a11.208,11.208,0,0,1-3.251-5.808c-.235-1.117-.47-2.494-1.565-2.875a2.91,2.91,0,0,0-1.158-.078c-2.285.156-5.86,1.1-8.073.376C890.905,196.908,890.049,193.9,890.049,191.977Z" transform="translate(-489.787 -178.19)" opacity="0.1"/><path d="M890.509,191.517a16.408,16.408,0,0,1,1.044-6.413,1.6,1.6,0,0,0,.271,2.087,10.27,10.27,0,0,1,3.256-5.771,1.765,1.765,0,0,0-1.169,2.2,5.011,5.011,0,0,0,1.6,2.254,4.028,4.028,0,0,1,1.978-3.407,11.871,11.871,0,0,1,3.862-1.4,2.239,2.239,0,0,0-1.482,2.3.643.643,0,0,0,.193.444.736.736,0,0,0,.438.115,33.592,33.592,0,0,0,4.055-.089,42.509,42.509,0,0,1,4.994-.266c5.218.219,10.462,3.783,11.631,8.871a20.408,20.408,0,0,1,.381,3.747l.256,6.424a23.483,23.483,0,0,1-.229,5.615,11.9,11.9,0,0,1-6.111,8.078c-1.884-2.729-2.051-6.236-2.7-9.487a4.8,4.8,0,0,0-.814-2.087,1.832,1.832,0,0,0-2.009-.678,1.153,1.153,0,0,0-.423,1.837c-.522.616-1.5.156-2.087-.391a11.209,11.209,0,0,1-3.251-5.808c-.235-1.117-.469-2.494-1.565-2.875a2.912,2.912,0,0,0-1.158-.078c-2.285.157-5.86,1.1-8.072.376C891.365,196.443,890.509,193.442,890.509,191.517Z" transform="translate(-490.007 -177.97)" fill="#784f69"/><path d="M840.531,297.42s-1.92,8.871,1.68,14.4l2.04-.167-1.111-14.089Z" transform="translate(-465.87 -233.607)" fill="#1e1e1e" opacity="0.1"/><path d="M841.531,297.42s-1.92,8.871,1.68,14.4l2.04-.167-1.111-14.089Z" transform="translate(-466.348 -233.607)" fill="#1e1e1e"/><path d="M925.568,251l15.482,13.322s9.121,9.361,5.281,24.484c0,0-1.68,22.083-3.6,23.043,0,0-6.721,13.442-7.2,26.164,0,0-9-18.123-13.082-7.081s-13.567,12.6-13.567,12.6l5.281-65.31S927.488,255.06,925.568,251Z" transform="translate(-498.798 -211.41)" opacity="0.1"/><path d="M926.488,251l15.482,13.322s9.121,9.361,5.281,24.484c0,0-1.68,22.083-3.6,23.043,0,0-6.721,13.442-7.2,26.164,0,0-9.481-19.083-13.567-8.041S909.8,343.539,909.8,343.539l5.281-65.284S928.408,255.06,926.488,251Z" transform="translate(-499.238 -211.41)" fill="#747474"/><path d="M945.781,358.4s3.841-2.64,10.082,4.561L940.5,390.8l-5.161-7.791S946.262,361.517,945.781,358.4Z" transform="translate(-511.45 -262.54)" fill="#fec3be"/><path d="M948.22,358.081s8.5,9.539,11.809,8.01l3.068-7.144L951.58,354Z" transform="translate(-517.609 -260.663)" opacity="0.1"/><path d="M948.22,357.161s8.5,9.539,11.809,8.01l3.068-7.144L951.58,353.08Z" transform="translate(-517.609 -260.223)" fill="#1e1e1e"/><path d="M934.973,402.51s4.044,8.286,6.2,8.766l-3.131,3.6-4.561-8.641Z" transform="translate(-510.561 -283.86)" opacity="0.1"/><path d="M934.5,403s4.044,8.286,6.2,8.766l-3.131,3.6L933,406.71Z" transform="translate(-510.331 -284.094)" fill="#4d4981"/><path d="M949.2,304.78s.48,17.283-1.44,23.763" transform="translate(-517.39 -237.127)" opacity="0.1"/><path d="M876,308.141s2.88-.96,2.88-3.361" transform="translate(-483.075 -237.127)" opacity="0.1"/><path d="M198.585,316.76s-13.682,28.3-4.7,61.8,6.131,73.576-2.828,83.49" transform="translate(-155.437 -242.855)" fill="none" stroke="#535461" stroke-miterlimit="10" stroke-width="2"/><ellipse cx="3.773" cy="3.773" rx="3.773" ry="3.773" transform="translate(39.374 70.137)" fill="#0cc"/><path d="M194.79,349.259s14.183,2.557,17.956-2.609" transform="translate(-157.331 -257.148)" fill="none" stroke="#535461" stroke-miterlimit="10" stroke-width="2"/><path d="M184.8,353.561s-8.532-9.44-8.062-15.1" transform="translate(-148.692 -253.232)" fill="none" stroke="#535461" stroke-miterlimit="10" stroke-width="2"/><path d="M190.82,388.585s7.759,2.046,14.84-13.045" transform="translate(-155.432 -270.963)" fill="none" stroke="#535461" stroke-miterlimit="10" stroke-width="2"/><path d="M179.071,405.909s-19.307-12.424-16.954-20.439" transform="translate(-141.612 -275.711)" fill="none" stroke="#535461" stroke-miterlimit="10" stroke-width="2"/><path d="M200.57,430.07s13.525-12,12.111-23.81" transform="translate(-160.094 -285.653)" fill="none" stroke="#535461" stroke-miterlimit="10" stroke-width="2"/><path d="M188.077,456.587s-17.22-4.811-16.7-12.357" transform="translate(-146.13 -303.81)" fill="none" stroke="#535461" stroke-miterlimit="10" stroke-width="2"/><path d="M205.69,472.176s10.849-10.05,12.263-16.176" transform="translate(-162.543 -309.438)" fill="none" stroke="#535461" stroke-miterlimit="10" stroke-width="2"/><path d="M196.505,501.794S185.375,488.8,184.9,482.2" transform="translate(-152.601 -321.966)" fill="none" stroke="#535461" stroke-miterlimit="10" stroke-width="2"/><path d="M207.14,521.629s12.456-13.839,13.395-20.439" transform="translate(-163.236 -331.047)" fill="none" stroke="#535461" stroke-miterlimit="10" stroke-width="2"/><ellipse cx="3.773" cy="3.773" rx="3.773" ry="3.773" transform="translate(24.278 82.4)" fill="#0cc"/><ellipse cx="3.773" cy="3.773" rx="3.773" ry="3.773" transform="translate(20.036 136.648)" fill="#0cc"/><ellipse cx="3.773" cy="3.773" rx="3.773" ry="3.773" transform="translate(16.733 105.986)" fill="#0cc"/><ellipse cx="3.773" cy="3.773" rx="3.773" ry="3.773" transform="translate(51.642 85.703)" fill="#0cc"/><ellipse cx="3.773" cy="3.773" rx="3.773" ry="3.773" transform="translate(51.642 143.723)" fill="#0cc"/><ellipse cx="3.773" cy="3.773" rx="3.773" ry="3.773" transform="translate(45.511 100.799)" fill="#0cc"/><ellipse cx="3.773" cy="3.773" rx="3.773" ry="3.773" transform="translate(53.056 168.729)" fill="#0cc"/><ellipse cx="3.773" cy="3.773" rx="3.773" ry="3.773" transform="translate(27.581 158.82)" fill="#0cc"/><ellipse cx="3.773" cy="3.773" rx="3.773" ry="3.773" transform="translate(49.284 116.834)" fill="#0cc"/></svg>