<svg xmlns="http://www.w3.org/2000/svg" width="268.914" height="30" viewBox="0 0 268.914 30"><path d="M9.4,26.893,7.887,31.049H0L11.538,2.3h5.788L28.749,31.049H20.782l-1.4-4.156Zm2.019-5.829h6.021l-2.952-9.829h-.115Z" transform="translate(0 -1.621)" fill="#036"/><path d="M127.868,18.99a14.734,14.734,0,0,1-14.528,11.3A14.919,14.919,0,1,1,113.264.46a14.7,14.7,0,0,1,14.607,11.461h-7.692a7.448,7.448,0,0,0-6.954-5.012c-4.935,0-7.692,4.312-7.692,8.391,0,4.351,2.952,8.548,7.73,8.548,4.584,0,6.449-3.846,6.916-4.855h7.689Z" transform="translate(-69.208 -0.324)" fill="#036"/><path d="M208.151,26.893l-1.514,4.156H198.75L210.288,2.3h5.788L227.5,31.049h-7.963l-1.4-4.156Zm2.019-5.829h6.021l-2.952-9.829h-.115Z" transform="translate(-140.087 -1.621)" fill="#036"/><path d="M326.611,18.99a14.735,14.735,0,0,1-14.531,11.3A14.919,14.919,0,1,1,312,.46a14.7,14.7,0,0,1,14.607,11.461h-7.692a7.448,7.448,0,0,0-6.954-5.012c-4.932,0-7.692,4.312-7.692,8.391,0,4.351,2.952,8.548,7.73,8.548,4.584,0,6.449-3.846,6.916-4.855h7.692Z" transform="translate(-209.288 -0.324)" fill="#036"/><path d="M522.4,2.3h9.439l5.711,18.92h.077L543.262,2.3h9.478V31.049H545.98l.233-21.523-.077-.077L540,31.049h-4.855L529,9.449l-.077.077.233,21.523H522.4V2.3Z" transform="translate(-368.209 -1.621)" fill="#036"/><path d="M642.84,2.3h9.4c5.322,0,7.3.815,8.858,2.1a9.778,9.778,0,0,1,3.38,7.615,10.369,10.369,0,0,1-3.031,7.535c-1.981,1.671-3.923,2.485-8.391,2.485h-3.185v9.014H642.84Zm7.031,13.288h2.99c1.4,0,4.584,0,4.584-3.456,0-3.38-3.264-3.38-4.855-3.38h-2.718Z" transform="translate(-453.1 -1.621)" fill="#036"/><path d="M726.55,2.3h9.091c5.05,0,6.992.623,8.858,2.06a9.959,9.959,0,0,1,3.536,7.848c0,3.3-1.709,8.158-7.149,9.053l7.81,9.79H740.3l-6.644-9.286h-.077v9.283h-7.031V2.3Zm7.031,14.454h2.6c4.312,0,4.817-2.718,4.817-4.117,0-2.6-1.9-3.884-4.74-3.884h-2.68Z" transform="translate(-512.102 -1.621)" fill="#036"/><path d="M823.44.46A14.919,14.919,0,1,1,808.29,15.726a16.2,16.2,0,0,1,1.128-6.136A14.936,14.936,0,0,1,823.44.46Zm.115,23.385c5.207,0,7.73-4.74,7.73-8.43,0-3.731-2.524-8.506-7.807-8.506-5.089,0-7.848,4.351-7.848,8.391C815.631,19.728,818.623,23.845,823.556,23.845Z" transform="translate(-569.716 -0.324)" fill="#036"/><g transform="translate(119.805)"><path d="M422.178,23.462a7.865,7.865,0,0,1-.927.053c-4.962,0-7.969-4.141-7.969-8.592,0-4.061,2.775-8.439,7.89-8.439,5.313,0,7.851,4.805,7.851,8.554a9.416,9.416,0,0,1-.655,3.377l6.482,3.067c.021.012.044.03.071.047A15.25,15.25,0,1,0,407.033,9.179a16.336,16.336,0,0,0-1.133,6.172A14.9,14.9,0,0,0,421.095,30c.552,0,1.092-.027,1.623-.077,0-.012-.012-.027-.015-.035Q422.438,26.674,422.178,23.462Z" transform="translate(-405.9)" fill="#0cc"/><path d="M468.181,63.474l5.561,2.184-6.874.933L464.4,73.105l-.891-5.906-.888-5.909Z" transform="translate(-445.879 -43.2)" fill="#0cc"/></g></svg>