<svg xmlns="http://www.w3.org/2000/svg" xmlns:xlink="http://www.w3.org/1999/xlink" width="50" height="50" viewBox="0 0 50 50"><defs><clipPath id="a"><rect width="50" height="50" transform="translate(0.245 -0.316)" fill="none" stroke="#036" stroke-width="1"/></clipPath></defs><g transform="translate(-0.245 0.316)" clip-path="url(#a)"><g transform="translate(0.771 1.563)"><path d="M48.843,33.137A3.337,3.337,0,0,0,46.2,30.608V10.575h1.621a.843.843,0,0,0,.81-.873V.974A.843.843,0,0,0,47.818.1H12.157a.843.843,0,0,0-.81.873V9.7a.843.843,0,0,0,.81.873h1.621V28.032h-.81A9.9,9.9,0,0,0,7.294,29.82V25.413a.843.843,0,0,0-.81-.873H.81a.843.843,0,0,0-.81.873V45.488a.843.843,0,0,0,.81.873H6.484a.843.843,0,0,0,.81-.873V41.082a9.911,9.911,0,0,0,5.673,1.788H26.275a9.957,9.957,0,0,0,2.731-.388L46.554,37.42a3.541,3.541,0,0,0,2.29-4.282ZM12.968,1.847h34.04V8.83H12.968ZM15.4,10.575H44.576V30.758L35.17,33.474a3.348,3.348,0,0,0-2.144-2.027l-10.92-3.154a6.871,6.871,0,0,0-1.884-.262H15.4ZM5.673,44.615H1.621V26.286H5.673Zm40.46-8.882L28.589,40.8a8.417,8.417,0,0,1-2.313.329H12.968A8.446,8.446,0,0,1,7.618,39.2l-.324-.262V31.959l.324-.262a8.441,8.441,0,0,1,5.349-1.92h7.254a5.344,5.344,0,0,1,1.468.2l10.917,3.152a1.728,1.728,0,0,1,1.191,1.5.9.9,0,0,0,.032.106.919.919,0,0,0-.021.114,1.594,1.594,0,0,1-.053.42,1.646,1.646,0,0,1-1.562,1.291,1.491,1.491,0,0,1-.422-.058l-6.889-1.989a.771.771,0,0,0-.8.214.92.92,0,0,0-.213.856.841.841,0,0,0,.592.615L31.35,38.2a3.075,3.075,0,0,0,.844.117,3.284,3.284,0,0,0,3.119-2.564,3.344,3.344,0,0,0,.092-.535l9.88-2.853c.07-.019.147-.039.219-.052a1.629,1.629,0,0,1,1.774,1.284,1.828,1.828,0,0,1,.053.452,1.73,1.73,0,0,1-1.2,1.688Zm0,0" transform="translate(0 -0.101)" fill="#036" stroke="#036" stroke-width="0.2"/><path d="M248.649,113.5h6.492a.7.7,0,0,0,0-1.4h-6.492a.7.7,0,0,0,0,1.4Zm0,0" transform="translate(-223.336 -95.507)" fill="#036" stroke="#036" stroke-width="0.2"/></g></g></svg>