<svg xmlns="http://www.w3.org/2000/svg" xmlns:xlink="http://www.w3.org/1999/xlink" width="50" height="50" viewBox="0 0 50 50"><defs><clipPath id="a"><rect width="50" height="50" transform="translate(0 0.2)" fill="none"/></clipPath></defs><g transform="translate(0 -0.2)" clip-path="url(#a)"><path d="M35.2,42.094H8.832A4.031,4.031,0,0,1,4.8,38.063V7.832A3.863,3.863,0,0,1,8.832,3.8H35.2a4.031,4.031,0,0,1,4.031,4.031V38.063A4.031,4.031,0,0,1,35.2,42.094ZM8.832,5.649A2.183,2.183,0,0,0,6.649,7.832V38.063a2.183,2.183,0,0,0,2.183,2.015H35.2a2.183,2.183,0,0,0,2.015-2.015V7.832A2.183,2.183,0,0,0,35.2,5.649Z" transform="translate(3.26 2.396)" fill="#c9c8c8"/><path d="M16.765,17.817H9.04a.84.84,0,0,1-.84-.672V7.74a.84.84,0,0,1,.84-.84h7.726a.84.84,0,0,1,.84.84v9.405A.84.84,0,0,1,16.765,17.817ZM9.879,16.305h6.214V8.412H9.879Z" transform="translate(5.572 4.504)" fill="#c9c8c8"/><path d="M25.645,11.312H16.072a.672.672,0,0,1-.672-.672.84.84,0,0,1,.672-.84h9.573a.84.84,0,0,1,.672.84A.672.672,0,0,1,25.645,11.312Z" transform="translate(10.464 6.474)" fill="#c9c8c8"/><path d="M25.645,9.212H16.072a.84.84,0,0,1-.672-.84.672.672,0,0,1,.672-.672h9.573a.672.672,0,0,1,.672.672A.84.84,0,0,1,25.645,9.212Z" transform="translate(10.464 5.047)" fill="#c9c8c8"/><path d="M25.645,13.512H16.072a.84.84,0,0,1-.672-.84A.672.672,0,0,1,16.072,12h9.573a.672.672,0,0,1,.672.672A.84.84,0,0,1,25.645,13.512Z" transform="translate(10.464 7.969)" fill="#c9c8c8"/><path d="M16.765,26.517H9.04a.84.84,0,0,1-.84-.672V16.44a.84.84,0,0,1,.84-.84h7.726a.84.84,0,0,1,.84.84v9.405A.84.84,0,0,1,16.765,26.517ZM9.879,25.005h6.214V17.279H9.879Z" transform="translate(5.572 10.415)" fill="#c9c8c8"/><path d="M25.645,20.012H16.072a.672.672,0,0,1-.672-.672.84.84,0,0,1,.672-.84h9.573a.84.84,0,0,1,.672.84A.672.672,0,0,1,25.645,20.012Z" transform="translate(10.464 12.386)" fill="#c9c8c8"/><path d="M25.645,17.912H16.072a.84.84,0,0,1-.672-.84.672.672,0,0,1,.672-.672h9.573a.672.672,0,0,1,.672.672A.84.84,0,0,1,25.645,17.912Z" transform="translate(10.464 10.959)" fill="#c9c8c8"/><path d="M25.645,22.212H16.072a.84.84,0,0,1-.672-.84.672.672,0,0,1,.672-.672h9.573a.672.672,0,0,1,.672.672A.84.84,0,0,1,25.645,22.212Z" transform="translate(10.464 13.881)" fill="#c9c8c8"/></g></svg>