<svg xmlns="http://www.w3.org/2000/svg" xmlns:xlink="http://www.w3.org/1999/xlink" width="50" height="50" viewBox="0 0 50 50"><defs><clipPath id="a"><rect width="50" height="50" fill="none"/></clipPath></defs><g clip-path="url(#a)"><rect width="41.667" height="41.667" transform="translate(3.5 4.333)" fill="none"/><g transform="translate(4 6)"><path d="M43.567,30.6A2.833,2.833,0,0,0,41.4,28.433V11.767h1.333A.667.667,0,0,0,43.4,11.1V3.767a.667.667,0,0,0-.667-.667H13.067a.833.833,0,0,0-.833.667V11.1a.833.833,0,0,0,.833.667H14.4v14.5h-.667a8.333,8.333,0,0,0-4.833,1.5V24.1a.667.667,0,0,0-.667-.667H3.567A.667.667,0,0,0,2.9,24.1V40.933a.667.667,0,0,0,.667.667H8.233a.667.667,0,0,0,.667-.667V37.267a9.667,9.667,0,0,0,4.833,1.5h11l2.333-.333L41.733,34.1a3,3,0,0,0,1.833-3.5ZM13.733,4.433H42.067v5.833H13.733Zm2,7.333H40.067V28.6l-7.833,2.333A3.333,3.333,0,0,0,30.4,29.1l-9.167-2.5-1.5-.333h-4ZM7.567,40.1H4.233V24.933H7.567Zm33.667-7.333-14.5,4.167-2,.333h-11a7.167,7.167,0,0,1-4.5-1.667H8.9v-6h.333a7.167,7.167,0,0,1,4.5-1.667H20.9L30.067,30.6a1.833,1.833,0,0,1,1,1.167h0V32.1a1.667,1.667,0,0,1-1.333,1H29.4l-5.833-1.667c-.167-.167-.5,0-.667.167a1,1,0,0,0-.167.667.5.5,0,0,0,.5.5l5.833,1.667h.667a2.667,2.667,0,0,0,2.5-2.167.667.667,0,0,0,.167-.5l8.167-2.333h.167a1.333,1.333,0,0,1,1.5,1v.5c.167.5-.333,1.167-1,1.333Z" transform="translate(-2.9 -3.1)" fill="#c9c8c8"/><path d="M16.7,12.567h5.5c.333,0,.5-.333.5-.667a.5.5,0,0,0-.5-.5H16.7a.5.5,0,0,0-.5.5.667.667,0,0,0,.5.667Z" transform="translate(5.967 2.434)" fill="#c9c8c8"/></g></g></svg>