<svg xmlns="http://www.w3.org/2000/svg" xmlns:xlink="http://www.w3.org/1999/xlink" width="50" height="50" viewBox="0 0 50 50"><defs><clipPath id="a"><rect width="50" height="50" transform="translate(0)" fill="none"/></clipPath></defs><g transform="translate(-99.303 -609.73)"><g transform="translate(99.303 609.73)" clip-path="url(#a)"><g transform="translate(8.189 8.161)"><path d="M22.875,31.208h-1a8.987,8.987,0,0,1-8.821-9.487,8.821,8.821,0,0,1,8.488-9.32h.166c5.991,0,8.821,5.326,8.821,9.487a9.819,9.819,0,0,1-.832,3.661l7.156,3.329h.166A16.867,16.867,0,1,0,6.4,14.731l-.333.5A18.973,18.973,0,0,0,4.9,22.054,16.477,16.477,0,0,0,21.71,38.364h1.831C23.208,35.868,23.042,33.538,22.875,31.208Z" transform="translate(-4.899 -4.882)" fill="#eee"/><path d="M22.158,19.43l6.158,2.5-7.656,1L18,30.082l-1-6.491L16,17.1Z" transform="translate(2.476 3.234)" fill="#eee"/></g></g></g></svg>