<svg xmlns="http://www.w3.org/2000/svg" xmlns:xlink="http://www.w3.org/1999/xlink" width="50" height="50" viewBox="0 0 50 50"><defs><clipPath id="a"><rect width="50" height="50" fill="none"/></clipPath></defs><g clip-path="url(#a)"><path d="M21.576,5.13A16.45,16.45,0,0,0,9.31,32.53a.667.667,0,0,0,.35.417h0A16.45,16.45,0,1,0,21.576,5.13Zm0,1.3a15.15,15.15,0,0,1,11.667,25c-1.15-2.083-4.65-7.433-10.683-7.983a11.667,11.667,0,0,0-7.65,1.933,16.167,16.167,0,0,0-5,5.75A15.133,15.133,0,0,1,21.576,6.43Zm-10.8,25.733c2.55-5,7.05-7.917,11.667-7.5,5.85.533,9.1,6.217,9.867,7.7a15.133,15.133,0,0,1-21.467-.2Z" transform="translate(3.424 3.42)" fill="#c9c8c8" stroke="#c9c8c8" stroke-miterlimit="10" stroke-width="0.5"/><path d="M17.313,19.427A5.783,5.783,0,1,0,11.53,13.66,5.783,5.783,0,0,0,17.313,19.427Zm0-10.25A4.483,4.483,0,1,1,12.83,13.66,4.483,4.483,0,0,1,17.313,9.177Z" transform="translate(7.687 5.24)" fill="#c9c8c8" stroke="#c9c8c8" stroke-miterlimit="10" stroke-width="0.5"/></g></svg>